# xmcd
#
# Track frame offsets:
#	150
#	14992
#	30282
#	46182
#	62962
#	74650
#	89230
#	106560
#	121492
#	136287
#	154540
#	170912
#	183660
#	199525
#	216457
#	228325
#
# Disc length: 3264
#
# Revision: 1
# Processed by: cddbd v1.5.1PL0 Copyright (c) Steve Scherf et al.
# Submitted via: CDex 1.51
# Normalized: r0:TDELIM( - )
#
DISCID=ed0cbe10
DTITLE=Various Artist - The best country hits of the 90's
DYEAR=1998
DGENRE=Country
TTITLE0=Dolly parton - But you know I love you
TTITLE1=Aaron Tippin - My blue angel
TTITLE2=Lorrie Morgan - Five minutes
TTITLE3=Alabama - A better word for love
TTITLE4=Martina McBride - My baby loves me
TTITLE5=Diamond Rio - Meet me in the middle
TTITLE6=Lari White - Now I know
TTITLE7=Alalbama - Reckless
TTITLE8=Earl Thomas Conley - Brotherly love
TTITLE9=Keith Whitley - It ain't nothing
TTITLE10=Matraca Berg - I got it bad
TTITLE11=Shenandoah - If Bubba can dance (I can too)
TTITLE12=Paul Overstreet - Daddy's come around
TTITLE13=K.T. Oslin - Come next monday
TTITLE14=Restless Heart - You can depend on me
TTITLE15=Ronnie Milsap - Turn that radio on
EXTD=YEAR: 1998
EXTT0=
EXTT1=
EXTT2=
EXTT3=
EXTT4=
EXTT5=
EXTT6=
EXTT7=
EXTT8=
EXTT9=
EXTT10=
EXTT11=
EXTT12=
EXTT13=
EXTT14=
EXTT15=
PLAYORDER=
